<svg xmlns="http://www.w3.org/2000/svg" xmlns:xlink="http://www.w3.org/1999/xlink"><defs>
<clipPath id="clip0_0_1648">
<rect width="48" height="48" fill="white" transform="matrix(1 0 0 -1 0 48)"/>
</clipPath>

<clipPath id="clip0_3288_2">
<rect width="48" height="48" fill="white" transform="matrix(1 0 0 -1 0 48)"/>
</clipPath>
</defs><symbol id="arrow" viewBox="0 0 16 16">
<path d="M8 0L6.59 1.41L12.17 7H0V9H12.17L6.59 14.59L8 16L16 8L8 0Z" fill="#5A98D0"/>
</symbol><symbol id="close" viewBox="0 0 24 24">
<path d="M19 6.41L17.59 5L12 10.59L6.41 5L5 6.41L10.59 12L5 17.59L6.41 19L12 13.41L17.59 19L19 17.59L13.41 12L19 6.41Z" fill="currentColor"/>
</symbol><symbol id="logo-blue" viewBox="0 0 48 48">
<g clip-path="url(#clip0_0_1648)">
<circle cx="16" cy="24" r="16" fill="#316099"/>
<circle cx="32" cy="24" r="15" fill="white" stroke="#316099" stroke-width="2"/>
<path d="M39.3 30L34.38 16H30.96L26.06 30H29.04L29.88 27.48H35.46L36.3 30H39.3ZM32.68 19.18L34.6 24.9H30.76L32.68 19.18Z" fill="#316099"/>
</g>

</symbol><symbol id="logo-light-blue" viewBox="0 0 48 48">
<g clip-path="url(#clip0_3288_2)">
<circle cx="16" cy="24" r="16" fill="#98C3E8"/>
<circle cx="32" cy="24" r="15" fill="white" stroke="#316099" stroke-width="2"/>
<path d="M38.3 31L33.38 17H29.96L25.06 31H28.04L28.88 28.48H34.46L35.3 31H38.3ZM31.68 20.18L33.6 25.9H29.76L31.68 20.18Z" fill="#316099"/>
</g>

</symbol><symbol id="menu" viewBox="0 0 32 32">
<path d="M4 24H28V21.3333H4V24ZM4 17.3333H28V14.6667H4V17.3333ZM4 8V10.6667H28V8H4Z" fill="#356EAD"/>
</symbol></svg>